<?xml version="1.0" standalone="no"?>
<!DOCTYPE svg PUBLIC "-//W3C//DTD SVG 20010904//EN"
 "http://www.w3.org/TR/2001/REC-SVG-20010904/DTD/svg10.dtd">
<svg version="1.0" xmlns="http://www.w3.org/2000/svg"
 width="512.000000pt" height="512.000000pt" viewBox="0 0 512.000000 512.000000"
 preserveAspectRatio="xMidYMid meet">
<metadata>
Created by potrace 1.14, written by Peter Selinger 2001-2017
</metadata>
<g transform="translate(0.000000,512.000000) scale(0.100000,-0.100000)"
fill="#000000" stroke="none">
<path d="M2254 4804 c-148 -86 -287 -166 -309 -179 -218 -125 -475 -273 -970
-560 -159 -92 -315 -181 -345 -198 -30 -16 -67 -39 -83 -49 l-27 -19 2 -576 3
-575 37 -22 c339 -195 474 -272 485 -274 7 -2 13 -8 13 -13 0 -5 4 -9 9 -9 8
0 466 -260 566 -321 17 -11 37 -22 45 -26 8 -4 64 -35 123 -70 60 -35 112 -63
118 -63 5 0 9 -4 9 -10 0 -5 4 -10 9 -10 5 0 138 -74 296 -165 158 -91 289
-165 291 -165 2 0 57 32 123 70 66 39 125 70 130 70 5 0 11 3 13 8 3 6 266
160 293 171 5 2 12 7 15 10 3 4 18 12 34 19 38 17 111 -31 -538 346 -81 47
-150 86 -153 86 -3 0 -17 8 -31 19 -15 10 -47 29 -72 43 -25 14 -96 55 -159
92 -62 36 -115 66 -118 66 -2 0 -16 8 -31 19 -22 15 -396 233 -516 300 -99 56
-305 177 -327 192 l-25 18 0 200 c1 119 5 204 11 210 6 5 51 33 100 61 163 94
286 164 351 200 35 19 69 41 76 48 6 6 15 12 20 12 4 0 31 14 60 31 29 18 67
40 83 49 17 9 122 70 235 135 113 66 221 128 241 139 20 12 70 40 110 63 l74
42 45 -26 c25 -14 65 -37 90 -51 25 -14 78 -45 118 -69 41 -24 75 -43 77 -43
2 0 49 -27 105 -60 56 -33 106 -60 111 -60 5 0 9 -4 9 -8 0 -4 12 -13 28 -20
15 -7 36 -18 47 -25 25 -15 128 -75 176 -102 35 -20 314 -181 347 -200 9 -6
49 -28 87 -50 39 -21 99 -56 133 -77 l64 -39 41 25 c23 13 45 24 49 25 5 1 32
16 60 35 29 18 73 44 98 58 52 29 384 219 388 223 3 2 -34 25 -103 65 -16 9
-102 59 -190 110 -88 51 -173 100 -190 110 -282 161 -411 236 -413 243 -2 4
-7 7 -12 7 -4 0 -85 45 -180 100 -94 55 -176 100 -181 100 -5 0 -9 5 -9 10 0
6 -4 10 -10 10 -5 0 -69 35 -142 78 -74 43 -140 81 -148 85 -8 4 -28 15 -45
26 -44 27 -342 199 -401 232 l-51 28 -269 -155z"/>
<path d="M2335 3470 c-143 -82 -286 -164 -317 -183 l-57 -33 172 -99 c95 -54
215 -124 267 -155 52 -31 324 -189 604 -351 280 -162 527 -305 550 -318 23
-13 50 -29 61 -35 11 -6 93 -53 182 -105 l161 -94 1 -206 0 -206 -86 -50 c-48
-27 -107 -62 -132 -77 -26 -15 -59 -35 -76 -44 -16 -9 -113 -65 -215 -124
-102 -59 -201 -117 -220 -128 -50 -28 -262 -151 -280 -162 -8 -5 -64 -37 -125
-72 -60 -34 -117 -67 -126 -73 -9 -5 -34 -20 -56 -32 l-40 -22 -119 68 c-108
61 -284 162 -1067 613 l-258 148 -314 -182 c-173 -101 -313 -187 -312 -191 1
-5 81 -54 177 -109 96 -55 324 -186 505 -290 182 -105 350 -202 375 -215 25
-14 50 -29 55 -33 6 -4 35 -21 65 -37 30 -17 122 -69 204 -117 82 -47 150 -86
151 -86 2 0 64 -36 139 -80 76 -44 141 -80 146 -80 6 0 10 -4 10 -10 0 -5 4
-10 9 -10 5 0 59 -29 122 -64 62 -36 115 -64 118 -62 46 26 508 292 569 327
45 27 85 49 87 49 3 0 29 16 59 35 30 19 57 35 60 35 2 0 38 20 79 44 42 25
214 124 384 222 169 97 360 207 423 244 63 37 133 78 155 90 121 67 175 102
176 113 0 7 1 265 1 575 1 624 7 568 -62 604 -13 7 -101 57 -195 112 -93 54
-190 110 -215 124 -25 14 -97 55 -160 92 -104 61 -622 361 -1040 602 -91 53
-180 104 -197 114 -89 54 -126 74 -132 73 -3 0 -123 -67 -266 -149z"/>
</g>
</svg>
