<svg width="683" height="683" viewBox="0 0 683 683" fill="none" xmlns="http://www.w3.org/2000/svg">
<style>
@media (prefers-color-scheme: dark) {
.path { fill: #ffffff }
}
</style>
<path d="M155.333 12.9333C154 14.9333 152.267 17.3333 151.467 18.1333C150.667 18.9333 148.667 21.3333 147.067 23.4666C143.6 28 115.467 63.4666 112.267 67.3333C110.933 68.8 107.867 72.6666 105.333 76C102.8 79.3333 100.4 82.2666 100 82.6666C99.6 83.0666 95.0666 88.8 89.7333 95.6C84.5333 102.267 78.9333 109.2 77.4666 110.933C76 112.667 66.6666 124.133 56.8 136.667L38.8 159.333V416.667L38.6666 674L42.4 669.867C44.4 667.467 53.2 656.533 62 645.333C70.8 634.267 79.3333 623.467 80.9333 621.6C84.4 617.2 121.6 570.4 126.533 564.133C128.4 561.6 130.667 558.933 131.333 558.133C132.133 557.333 136 552.4 140 547.333C144 542.133 147.6 537.733 148 537.333C148.4 536.933 151.067 533.733 154 530L159.333 523.467V267.6C159.333 126.933 158.933 11.2 158.533 10.4C158.133 9.7333 156.667 10.8 155.333 12.9333Z" fill="black"/>
<path d="M639.867 13.6C638.133 16 636.133 18.6667 635.333 19.4667C633.6 21.4667 631.2 24.4 625.333 32C620.533 38.1333 618.133 41.2 614.667 45.3333C613.6 46.5333 611.2 49.6 609.333 52C605.333 57.2 573.2 97.6 568.533 103.2C566.8 105.333 564 108.933 562.4 111.067C560.667 113.333 556.4 118.8 552.667 123.333C549.067 127.867 544.267 133.867 542 136.667C539.867 139.467 534.8 145.733 531.067 150.533L524 159.2V173.333C523.867 194.933 523.867 669.733 524 672C524 674 524.533 673.467 538.4 656.133C546.933 645.6 547.333 644.933 553.333 637.333C555.867 634 558.267 631.067 558.667 630.667C559.067 630.267 561.467 627.333 564 624C566.533 620.667 569.2 617.333 570 616.533C570.667 615.733 572.933 613.067 574.933 610.533C576.8 608 587.2 594.933 598 581.333C608.8 567.733 619.2 554.667 621.067 552.133C623.067 549.733 629.2 542.133 634.667 535.333L644.667 522.933L644.533 266.8C644.533 126 644.133 10.4 643.733 9.99999C643.333 9.46666 641.6 11.2 639.867 13.6Z" fill="black"/>
<path d="M205.333 146.933V262.267L232.933 301.467C248 323.067 262.267 343.333 264.533 346.667C266.667 350 268.8 352.933 269.2 353.333C269.733 353.733 271.867 356.667 274.133 360C286.933 378.4 295.067 390.133 333.333 444.4C356.4 477.2 376 505.067 376.667 506.4C377.467 507.6 378.4 508.933 378.8 509.333C379.2 509.733 386.4 519.867 394.8 532C403.333 544.133 417.333 564.133 426.133 576.667C434.8 589.067 442.933 600.667 444 602.133C470 639.333 477.333 649.467 477.467 647.867C477.6 646.8 477.733 595.333 477.867 533.333C478.133 424.667 478 420.533 475.6 417.333C474.133 415.467 465.067 402.533 455.467 388.667C437.067 362.267 372.133 269.333 368.8 264.667C367.733 263.2 343.733 228.933 315.467 188.667C287.2 148.267 263.333 114.267 262.4 113.067C261.6 111.867 251.067 96.8 239.2 79.7333C227.333 62.6667 214.8 44.8 211.467 40.1333L205.333 31.6V146.933Z" fill="black"/>
</svg>
